<svg class="border shadow-md" viewBox="0 0 1351.68 760.32" style="width: 1351.68px; height: 760.32px;" xmlns="http://www.w3.org/2000/svg" preserveAspectRatio="none"><rect class="bg" id="bg" x="0" y="0" width="1351.68" height="760.32" fill="#ffffff"/><path d="M 0 -126.72000000000001 L 0 -126.72&#10;                L 64.37 -63.36&#10;                L 193.09714285714287 -126.72 L 193.09714285714287 -126.72&#10;                L 327.10 -62.72&#10;                L 386.19428571428574 -126.72 L 386.19428571428574 -126.72&#10;                L 482.19 -23.72&#10;                L 579.2914285714286 -126.72 L 579.2914285714286 -126.72&#10;                L 681.29 -50.72&#10;                L 772.3885714285715 -126.72 L 772.3885714285715 -126.72&#10;                L 836.75 -5.72&#10;                L 965.4857142857144 -126.72 L 965.4857142857144 -126.72&#10;                L 1029.85 -57.72&#10;                L 1158.5828571428572 -126.72 L 1158.5828571428572 -126.72&#10;                L 1279.58 -63.36&#10;                L 1351.68 -126.72 L 1351.68 -126.72&#10;                L 1416.05 -53.72&#10;                L 1544.777142857143 -126.72  V 760.32 H 0 V -126.72 Z" fill="#BC2F2F"/><path d="M 0 0 L 0 0.00&#10;                L 64.37 99.00&#10;                L 193.09714285714287 0.00 L 193.09714285714287 0.00&#10;                L 257.46 63.36&#10;                L 386.19428571428574 0.00 L 386.19428571428574 0.00&#10;                L 450.56 63.36&#10;                L 579.2914285714286 0.00 L 579.2914285714286 0.00&#10;                L 643.66 63.36&#10;                L 772.3885714285715 0.00 L 772.3885714285715 0.00&#10;                L 836.75 67.00&#10;                L 965.4857142857144 0.00 L 965.4857142857144 0.00&#10;                L 1074.49 63.36&#10;                L 1158.5828571428572 0.00 L 1158.5828571428572 0.00&#10;                L 1222.95 63.36&#10;                L 1351.68 0.00 L 1351.68 0.00&#10;                L 1423.68 63.36&#10;                L 1544.777142857143 0.00  V 760.32 H 0 V 0.00 Z" fill="#a42a30"/><path d="M 0 126.72000000000001 L 0 126.72&#10;                L 140.00 220.72&#10;                L 193.09714285714287 126.72 L 193.09714285714287 126.72&#10;                L 324.10 190.08&#10;                L 386.19428571428574 126.72 L 386.19428571428574 126.72&#10;                L 496.19 230.72&#10;                L 579.2914285714286 126.72 L 579.2914285714286 126.72&#10;                L 643.66 190.08&#10;                L 772.3885714285715 126.72 L 772.3885714285715 126.72&#10;                L 864.39 190.08&#10;                L 965.4857142857144 126.72 L 965.4857142857144 126.72&#10;                L 1029.85 223.72&#10;                L 1158.5828571428572 126.72 L 1158.5828571428572 126.72&#10;                L 1222.95 190.08&#10;                L 1351.68 126.72 L 1351.68 126.72&#10;                L 1416.05 228.72&#10;                L 1544.777142857143 126.72  V 760.32 H 0 V 126.72 Z" fill="#8c2531"/><path d="M 0 253.44000000000003 L 0 253.44&#10;                L 64.37 316.80&#10;                L 193.09714285714287 253.44 L 193.09714285714287 253.44&#10;                L 336.10 316.80&#10;                L 386.19428571428574 253.44 L 386.19428571428574 253.44&#10;                L 450.56 316.80&#10;                L 579.2914285714286 253.44 L 579.2914285714286 253.44&#10;                L 675.29 323.44&#10;                L 772.3885714285715 253.44 L 772.3885714285715 253.44&#10;                L 836.75 322.44&#10;                L 965.4857142857144 253.44 L 965.4857142857144 253.44&#10;                L 1045.49 369.44&#10;                L 1158.5828571428572 253.44 L 1158.5828571428572 253.44&#10;                L 1222.95 331.44&#10;                L 1351.68 253.44 L 1351.68 253.44&#10;                L 1452.68 316.80&#10;                L 1544.777142857143 253.44  V 760.32 H 0 V 253.44 Z" fill="#742032"/><path d="M 0 380.16 L 0 380.16&#10;                L 112.00 491.16&#10;                L 193.09714285714287 380.16 L 193.09714285714287 380.16&#10;                L 328.10 479.16&#10;                L 386.19428571428574 380.16 L 386.19428571428574 380.16&#10;                L 450.56 443.52&#10;                L 579.2914285714286 380.16 L 579.2914285714286 380.16&#10;                L 643.66 443.52&#10;                L 772.3885714285715 380.16 L 772.3885714285715 380.16&#10;                L 886.39 443.52&#10;                L 965.4857142857144 380.16 L 965.4857142857144 380.16&#10;                L 1029.85 455.16&#10;                L 1158.5828571428572 380.16 L 1158.5828571428572 380.16&#10;                L 1252.58 443.52&#10;                L 1351.68 380.16 L 1351.68 380.16&#10;                L 1416.05 485.16&#10;                L 1544.777142857143 380.16  V 760.32 H 0 V 380.16 Z" fill="#5c1b33"/><path d="M 0 506.88000000000005 L 0 506.88&#10;                L 78.00 599.88&#10;                L 193.09714285714287 506.88 L 193.09714285714287 506.88&#10;                L 257.46 610.88&#10;                L 386.19428571428574 506.88 L 386.19428571428574 506.88&#10;                L 450.56 570.24&#10;                L 579.2914285714286 506.88 L 579.2914285714286 506.88&#10;                L 702.29 575.88&#10;                L 772.3885714285715 506.88 L 772.3885714285715 506.88&#10;                L 842.39 570.24&#10;                L 965.4857142857144 506.88 L 965.4857142857144 506.88&#10;                L 1056.49 610.88&#10;                L 1158.5828571428572 506.88 L 1158.5828571428572 506.88&#10;                L 1246.58 570.24&#10;                L 1351.68 506.88 L 1351.68 506.88&#10;                L 1435.68 571.88&#10;                L 1544.777142857143 506.88  V 760.32 H 0 V 506.88 Z" fill="#441634"/><path d="M 0 633.6 L 0 633.60&#10;                L 64.37 696.96&#10;                L 193.09714285714287 633.60 L 193.09714285714287 633.60&#10;                L 257.46 696.96&#10;                L 386.19428571428574 633.60 L 386.19428571428574 633.60&#10;                L 477.19 707.60&#10;                L 579.2914285714286 633.60 L 579.2914285714286 633.60&#10;                L 643.66 729.60&#10;                L 772.3885714285715 633.60 L 772.3885714285715 633.60&#10;                L 836.75 696.96&#10;                L 965.4857142857144 633.60 L 965.4857142857144 633.60&#10;                L 1042.49 696.96&#10;                L 1158.5828571428572 633.60 L 1158.5828571428572 633.60&#10;                L 1222.95 758.60&#10;                L 1351.68 633.60 L 1351.68 633.60&#10;                L 1416.05 696.96&#10;                L 1544.777142857143 633.60  V 760.32 H 0 V 633.60 Z" fill="#2c1135"/></svg>