<svg xmlns="http://www.w3.org/2000/svg" version="1.1" xmlns:xlink="http://www.w3.org/1999/xlink" xmlns:svgjs="http://svgjs.com/svgjs" width="1920" height="1080" preserveAspectRatio="none" viewBox="0 0 1920 1080"><g mask="url(&quot;#SvgjsMask1270&quot;)" fill="none"><path d="M -481.2072216874824,297 C -353.21,353.6 -97.21,587.6 158.7927783125176,580 C 414.79,572.4 542.79,265.2 798.7927783125176,259 C 1054.79,252.8 1182.79,566.4 1438.7927783125176,549 C 1694.79,531.6 1982.55,167 2078.792778312518,172 C 2175.03,177 1951.76,493.6 1920,574" stroke="rgba(215, 20, 46, 0.2)" stroke-width="2"></path><path d="M -131.00044502677753,945 C -3,796.8 253,261.8 508.9995549732225,204 C 765,146.2 893,590.8 1148.9995549732225,656 C 1405,721.2 1533,544.4 1788.9995549732225,530 C 2045,515.6 2402.8,605 2428.9995549732225,584 C 2455.2,563 2021.8,456.8 1920,425" stroke="rgba(215, 20, 46, 0.2)" stroke-width="2"></path><path d="M -923.1641709079515,674 C -795.16,586.2 -539.16,200 -283.1641709079515,235 C -27.16,270 100.84,802 356.8358290920485,849 C 612.84,896 740.84,471.8 996.8358290920485,470 C 1252.84,468.2 1452.2,846 1636.8358290920485,840 C 1821.47,834 1863.37,520 1920,440" stroke="rgba(215, 20, 46, 0.2)" stroke-width="2"></path></g><defs><mask id="SvgjsMask1270"><rect width="1920" height="1080" fill="#ffffff"></rect></mask></defs></svg> 