<svg class="border shadow-md" viewBox="0 0 580.8 774.4" style="width: 580.8px; height: 774.4px;" xmlns="http://www.w3.org/2000/svg" preserveAspectRatio="none"><rect class="bg" id="bg" x="0" y="0" width="580.8" height="774.4" fill="#9b6969"/><g transform="rotate(0 290.4 387.2)"><path d="M -156.16 -99.07 S -154.00 -163.60&#xA;            0.00 -99.07 28.16 -181.07&#xA;            156.16 -99.07 224.24 -178.07&#xA;            312.32 -99.07 380.40 -163.60&#xA;            468.48 -99.07 488.64 -163.60&#xA;            624.64 -99.07 648.80 -175.07&#xA;            780.80 -99.07 844.96 -163.60&#xA;            936.96 -99.07 h 110 V 974.4 H -156.16 Z" fill="#2C1135" id="-1"/><path d="M -156.16 30.00 S -163.00 -68.00&#xA;            0.00 30.00 68.08 -34.53&#xA;            156.16 30.00 224.24 -34.53&#xA;            312.32 30.00 374.48 -34.53&#xA;            468.48 30.00 508.64 -34.53&#xA;            624.64 30.00 653.80 -47.00&#xA;            780.80 30.00 848.88 -34.53&#xA;            936.96 30.00 h 110 V 974.4 H -156.16 Z" fill="#35173e" id="0"/><path id="1" d="M -156.16 159.07 S -88.08 52.07&#xA;            0.00 159.07 68.08 61.07&#xA;            156.16 159.07 224.24 94.53&#xA;            312.32 159.07 380.40 94.53&#xA;            468.48 159.07 504.64 94.53&#xA;            624.64 159.07 692.72 94.53&#xA;            780.80 159.07 848.88 94.53&#xA;            936.96 159.07 h 110 V 974.4 H -156.16 Z" fill="#3e1d47"/><path id="2" d="M -156.16 288.13 S -88.08 190.13&#xA;            0.00 288.13 68.08 182.13&#xA;            156.16 288.13 224.24 221.13&#xA;            312.32 288.13 338.48 223.60&#xA;            468.48 288.13 536.56 223.60&#xA;            624.64 288.13 692.72 223.60&#xA;            780.80 288.13 848.88 223.60&#xA;            936.96 288.13 h 110 V 974.4 H -156.16 Z" fill="#472350"/><path id="3" d="M -156.16 417.20 S -88.08 297.20&#xA;            0.00 417.20 68.08 341.20&#xA;            156.16 417.20 212.32 307.20&#xA;            312.32 417.20 380.40 291.20&#xA;            468.48 417.20 536.56 309.20&#xA;            624.64 417.20 644.80 352.67&#xA;            780.80 417.20 848.88 318.20&#xA;            936.96 417.20 h 110 V 974.4 H -156.16 Z" fill="#502959"/><path id="4" d="M -156.16 546.27 S -126.00 481.73&#xA;            0.00 546.27 63.16 461.27&#xA;            156.16 546.27 168.32 481.73&#xA;            312.32 546.27 368.48 481.73&#xA;            468.48 546.27 489.64 481.73&#xA;            624.64 546.27 692.72 453.27&#xA;            780.80 546.27 817.96 451.27&#xA;            936.96 546.27 h 110 V 974.4 H -156.16 Z" fill="#592f62"/><path id="5" d="M -156.16 675.33 S -88.08 610.80&#xA;            0.00 675.33 63.16 610.80&#xA;            156.16 675.33 224.24 564.33&#xA;            312.32 675.33 380.40 595.33&#xA;            468.48 675.33 476.64 610.80&#xA;            624.64 675.33 692.72 567.33&#xA;            780.80 675.33 848.88 610.80&#xA;            936.96 675.33 h 110 V 974.4 H -156.16 Z" fill="#62356b"/></g></svg>